<?xml version="1.0" encoding="UTF-8"?>
<svg version="1.1" viewBox="0 0 2048 435" width="480" height="102" xmlns="http://www.w3.org/2000/svg">
<path transform="translate(0)" d="m0 0h2048v435h-2048z"/>
<path transform="translate(1287,107)" d="m0 0h16l14 2 12 4 11 6 7 8 7 14 3 13 1 7v15l-8 57-10 60-6 38-4 13-6 4-4 1h-51l-11-1-5-3v-13l7-43 12-74 2-14v-17l-3-5-6-4-6-1h-10l-12 3-12 5-3 13-13 83-9 56-3 9-6 5-8 1h-57l-5-3-3-5 1-9 7-41 16-100 11-68 3-10 2-2h65l5 3v11l16-8 13-5 19-4z" fill="#098CFD"/>
<path transform="translate(1657,107)" d="m0 0h21l18 2 16 5 10 5 12 9 8 8 8 14 5 16 2 13v27l-6 36-3 9-5 1h-130l2 16 3 6 8 7 7 3h63l17-1h17l2 2v10l-3 24-2 12-4 6-16 5-27 6-15 2h-59l-17-4-16-6-14-10-10-10-8-17-5-19-1-8v-20l7-42 6-25 9-20 7-11 11-14 12-12 15-9 14-7 20-6z" fill="#098CFD"/>
<path transform="translate(478,107)" d="m0 0h27l18 3 15 5 10 6 10 8 8 8 7 12 6 18 1 7v33l-2 21-4 17-4 6-3 1h-129l2 18 4 6 6 5 6 3h59l19-2h10l11 3 2 1-4 36-3 10-4 5-11 4-22 5-24 4-15 1h-20l-24-1-18-4-18-8-11-8-5-5-7-9-8-16-3-12v-38l7-43 6-20 8-19 9-14 11-12 9-9 13-9 16-8 15-5 15-3z" fill="#098CFD"/>
<path transform="translate(694,108)" d="m0 0h39l14 2 15 5 15 8 14 14 6 12 6 17 2 8 1 10v11l-2 23-4 24-4 8-1 1-10 1h-122v10l3 13 4 4 10 5 16 1 64-1h21v11l-4 28-3 12-6 4-26 6-23 4-25 2-41-1-17-4-19-9-9-7-8-8-9-14-5-15-2-14v-20l4-31 4-22 8-24 9-19 9-13 12-13 9-8 19-11 16-6 11-3z" fill="#098CFD"/>
<path transform="translate(1008,108)" d="m0 0h47l23 5 13 5 11 7 8 8 6 10 4 11 2 12v16l-9 62-10 65-4 25-4 10-4 4-5 1h-55l-5-2-2-4-2-10-11 7-10 5-13 4-13 2h-21l-14-3-11-5-6-4-10-10-6-12-2-7-1-8v-13l3-20 4-13 7-14 15-15 15-9 13-5 11-3 20-2 25-1h22l1-12v-13l-2-5-12-3-13-1-14 1-58 1-2-1v-13l7-36 5-7 9-3 39-6z" fill="#098CFD"/>
<path transform="translate(171,26)" d="m0 0h37l16 2 8 3 2 3v10l-3 22-3 15-7 3-30 3-5 21-1 2 30 1 7 2-2 26-5 26-2 4-34 1h-5v11l-6 42-10 64-7 42-3 13-4 6-2 1h-50l-18-1-4-3v-10l9-60 10-64 11-70 8-48 6-22 9-17 8-10 8-6 16-8z" fill="#098CFD"/>
<path transform="translate(1469,107)" d="m0 0h29l27 3 19 5 2 2-1 16-4 24-4 17-2 2h-20l-28-1-14 1-11 5-9 17-3 11-6 41v20l4 8 10 5h39l21-1 1 1-1 25-4 24-3 7-5 5-16 4-14 2-14 1h-17l-20-1-19-5-16-8-13-13-8-14-4-12-2-12v-31l7-45 5-20 7-19 8-15 7-9 9-10 8-8 15-9 12-6 22-6z" fill="#098CFD"/>
<path transform="translate(855,34)" d="m0 0h72l2 1-2 22-13 83-8 53-14 83-8 51-4 16-6 5-6 1h-58l-8-6v-9l9-55 14-89 10-61 7-45 6-35 4-13z" fill="#098CFD"/>
<path transform="translate(361,107)" d="m0 0h12l5 6-3 16-6 35-3 7-6 2-25 1-28 7-2 1v12l-9 62-9 57-4 22-6 12-5 2h-47l-18-1-5-5 2-20 19-115 13-81 4-15 3-1h69l1 1v14l16-11 11-5z" fill="#098CFD"/>
<path transform="translate(1867,110)" d="m0 0 2 1-10 67-9 55-7 44-7 48-3 15-5 6-8 3h-54l-9-2-3-2v-14l9-60 12-72 2-10 16-15 15-13 11-9 9-8 14-11 8-8 11-9 5-5z" fill="#098CFD"/>
<path transform="translate(1949,110)" d="m0 0h32l27 1-1 3-23 13-22 13-29 17-17 11-21 12-16 8h-2v-10l7-43 4-24z" fill="#098CFD"/>
<path transform="translate(1651,168)" d="m0 0 19 1 8 7 4 10 1 11-3 10-5 2h-55l2-10 5-12 6-8 9-8z"/>
<path transform="translate(697,168)" d="m0 0h14l9 3 7 8 2 4v26h-54l-5-1 1-10 4-12 9-10 10-7z"/>
<path transform="translate(476,168)" d="m0 0h8l10 2 6 5 5 10 1 7-2 17h-46l-13-1-1-4 5-12 7-12 8-8 7-3z"/>
<path transform="translate(1007,250)" d="m0 0h28l-1 13-5 27-4 2-16 2h-16l-6-3-4-5v-16l4-9 5-6 9-4z"/>
</svg>
